<?xml version="1.0"?>
<svg xmlns="http://www.w3.org/2000/svg" xmlns:xlink="http://www.w3.org/1999/xlink" xmlns:svgjs="http://svgjs.com/svgjs" version="1.1" width="512" height="512" x="0" y="0" viewBox="0 0 32 32" style="enable-background:new 0 0 512 512" xml:space="preserve" class=""><g><path xmlns="http://www.w3.org/2000/svg" d="m26 32h-20c-3.314 0-6-2.686-6-6v-20c0-3.314 2.686-6 6-6h20c3.314 0 6 2.686 6 6v20c0 3.314-2.686 6-6 6z" fill="#ffe6e2" data-original="#e3f8fa" style="" class=""/><path xmlns="http://www.w3.org/2000/svg" d="m10 14v8.167c0 1.013.82 1.833 1.833 1.833h8.333c1.014 0 1.834-.82 1.834-1.833v-8.167zm4 6.667c0 .367-.3.667-.667.667s-.667-.3-.667-.667v-4c0-.367.3-.667.667-.667s.667.3.667.667zm2.667 0c0 .367-.3.667-.667.667s-.667-.3-.667-.667v-4c0-.367.3-.667.667-.667s.667.3.667.667zm2.666 0c0 .367-.3.667-.667.667s-.667-.3-.667-.667v-4c.001-.367.301-.667.668-.667s.667.3.667.667v4zm-5.333-11.334h4v.667h1.333v-.667c0-.733-.6-1.333-1.333-1.333h-4c-.733 0-1.333.6-1.333 1.333v.667h1.333z" fill="#fc573b" data-original="#26c6da" style="" class=""/><path xmlns="http://www.w3.org/2000/svg" d="m23.333 11.833v1.667c0 .273-.227.5-.5.5h-13.666c-.273 0-.5-.227-.5-.5v-1.667c0-1.013.82-1.833 1.833-1.833h11c1.013 0 1.833.82 1.833 1.833z" fill="#ffae9c" data-original="#8ce1eb" style="" class=""/></g></svg>
