<svg enable-background="new 0 0 32 32" height="512" viewBox="0 0 32 32" width="512" xmlns="http://www.w3.org/2000/svg"><path d="m26 32h-20c-3.314 0-6-2.686-6-6v-20c0-3.314 2.686-6 6-6h20c3.314 0 6 2.686 6 6v20c0 3.314-2.686 6-6 6z" fill="#ffe6e2"/><g fill="#fc573b"><path d="m21.421 19.536-8.957-8.957c-.391-.391-1.024-.391-1.414 0l-.471.471c-.391.391-.391 1.024 0 1.414l8.957 8.957c.391.391 1.024.391 1.414 0l.471-.471c.391-.391.391-1.024 0-1.414z"/><path d="m19.536 10.579-8.957 8.957c-.391.391-.391 1.024 0 1.414l.471.471c.391.391 1.024.391 1.414 0l8.957-8.957c.391-.391.391-1.024 0-1.414l-.471-.471c-.391-.391-1.024-.391-1.414 0z"/></g></svg>