<svg enable-background="new 0 0 32 32" height="512" viewBox="0 0 32 32" width="512" xmlns="http://www.w3.org/2000/svg"><path d="m26 32h-20c-3.314 0-6-2.686-6-6v-20c0-3.314 2.686-6 6-6h20c3.314 0 6 2.686 6 6v20c0 3.314-2.686 6-6 6z" fill="#e3f8fa"/><path d="m23.5 22.694h-8.667c-.368 0-.667-.299-.667-.667s.299-.667.667-.667h8.667c.368 0 .667.299.667.667 0 .369-.299.667-.667.667z" fill="#8ce1eb"/><path d="m21.678 10.792-.943-.943c-.504-.504-1.382-.504-1.885 0l-1.379 1.379 2.828 2.828 1.379-1.379c.252-.252.391-.586.391-.943 0-.355-.139-.69-.391-.942z" fill="#8ce1eb"/><path d="m16.529 12.171-6.871 6.871c-.044.044-.075.099-.089.159l-.727 3.084c-.026.112.007.23.089.312.063.063.148.098.236.098.025 0 .051-.003.076-.009l3.084-.727c.06-.014.116-.045.159-.089l6.871-6.871z" fill="#26c6da"/></svg>