<svg enable-background="new 0 0 32 32" height="512" viewBox="0 0 32 32" width="512" xmlns="http://www.w3.org/2000/svg"><path d="m26 32h-20c-3.314 0-6-2.686-6-6v-20c0-3.314 2.686-6 6-6h20c3.314 0 6 2.686 6 6v20c0 3.314-2.686 6-6 6z" fill="#e3f8fa"/><g fill="#26c6da"><path d="m22.333 14.667h-12.666c-.552 0-1 .448-1 1v.667c0 .552.448 1 1 1h12.667c.552 0 1-.448 1-1v-.667c-.001-.553-.448-1-1.001-1z"/><path d="m14.667 9.667v12.667c0 .552.448 1 1 1h.667c.552 0 1-.448 1-1v-12.667c0-.552-.448-1-1-1h-.667c-.553 0-1 .447-1 1z"/></g></svg>