<svg id="Bold" height="512" viewBox="0 0 32 32" width="512" xmlns="http://www.w3.org/2000/svg"><g><path d="m26 32h-20c-3.314 0-6-2.686-6-6v-20c0-3.314 2.686-6 6-6h20c3.314 0 6 2.686 6 6v20c0 3.314-2.686 6-6 6z" fill="#e3f8fa"/></g><path d="m22.32 22.387-1.307-9.82c-.093-.7-.7-1.233-1.413-1.233h-7.2c-.713 0-1.32.533-1.413 1.233l-1.307 9.826c-.053.407.067.813.34 1.12.267.307.66.487 1.067.487h9.827c.407 0 .8-.18 1.067-.487.272-.306.392-.713.339-1.126zm-2.22-4.414-1.78 1.52.593 2.34c.067.273-.04.553-.267.713-.113.08-.247.12-.38.12s-.26-.04-.373-.113l-1.893-1.286-1.893 1.287c-.227.153-.527.153-.753-.007-.227-.16-.333-.44-.267-.713l.593-2.34-1.78-1.52c-.207-.173-.287-.46-.2-.72.087-.254.327-.434.593-.454l2.26-.127.82-2.233c.1-.267.347-.44.627-.44s.527.173.627.44l.82 2.233 2.26.127c.267.02.507.2.593.453.087.26.007.547-.2.72z" fill="#26c6da"/><path d="m17.333 14c-.368 0-.667-.299-.667-.667v-3.111c0-.482-.305-.889-.667-.889s-.667.407-.667.889v3.111c0 .368-.298.667-.667.667-.367 0-.665-.299-.665-.667v-3.111c0-1.225.897-2.222 2-2.222s2 .997 2 2.222v3.111c0 .368-.298.667-.667.667z" fill="#8ce1eb"/></svg>