<svg id="bold" height="512" viewBox="0 0 32 32" width="512" xmlns="http://www.w3.org/2000/svg"><g><path d="m26 32h-20c-3.314 0-6-2.686-6-6v-20c0-3.314 2.686-6 6-6h20c3.314 0 6 2.686 6 6v20c0 3.314-2.686 6-6 6z" fill="#ffe6e2"/></g><path d="m22.333 14.331h-12.666c-.242 0-.449-.173-.492-.411s.09-.473.317-.557l10.6-3.958c.6-.223 1.309.113 1.513.718l1.202 3.548c.052.153.027.321-.067.452-.094.13-.245.208-.407.208z" fill="#fd907e"/><g fill="#fc573b"><path d="m22 22.665h-12c-1.103 0-2-.897-2-2v-1c0-.368.298-.667.667-.667h.333c.551 0 1-.449 1-1s-.449-1-1-1h-.333c-.369 0-.667-.299-.667-.667v-1c0-1.103.897-2 2-2h12c1.103 0 2 .897 2 2v1c0 .368-.298.667-.667.667h-.333c-.551 0-1 .449-1 1 0 .267.104.518.293.707s.439.293.706.293h.001.333c.368 0 .667.299.667.667v1c0 1.102-.897 2-2 2zm-12.667-2.358v.357c0 .368.299.667.667.667h12c.368 0 .667-.299.667-.667v-.357c-.497-.07-.956-.299-1.316-.66-.441-.441-.684-1.027-.684-1.65 0-1.174.87-2.147 2-2.31v-.357c0-.368-.299-.667-.667-.667h-12c-.368 0-.667.299-.667.667v.357c1.13.162 2 1.136 2 2.31s-.87 2.148-2 2.31z"/><path d="m14 15.331c-.368 0-.667-.299-.667-.667v-.667c0-.368.298-.667.667-.667.368 0 .667.299.667.667v.667c0 .369-.299.667-.667.667z"/><path d="m14 19.498c-.368 0-.667-.299-.667-.667v-1.667c0-.368.298-.667.667-.667.368 0 .667.299.667.667v1.667c0 .368-.299.667-.667.667z"/><path d="m14 22.665c-.368 0-.667-.299-.667-.667v-.667c0-.368.298-.667.667-.667.368 0 .667.299.667.667v.667c0 .368-.299.667-.667.667z"/></g></svg>