<svg enable-background="new 0 0 32 32" height="512" viewBox="0 0 32 32" width="512" xmlns="http://www.w3.org/2000/svg"><path d="m26 32h-20c-3.314 0-6-2.686-6-6v-20c0-3.314 2.686-6 6-6h20c3.314 0 6 2.686 6 6v20c0 3.314-2.686 6-6 6z" fill="#f5e6fe"/><path d="m19.283 11.589c-.104.249-.347.411-.616.411h-2v6.667c0 .368-.299.667-.667.667s-.667-.299-.667-.667v-6.667h-2c-.27 0-.513-.162-.616-.411s-.046-.536.145-.727l2.667-2.667c.26-.26.682-.26.943 0l2.667 2.667c.19.191.247.477.144.727z" fill="#be63f9"/><path d="m22 24h-12c-1.103 0-2-.897-2-2v-2.667c0-.368.299-.667.667-.667s.667.299.667.667v2.667c0 .368.299.667.667.667h12c.368 0 .667-.299.667-.667v-2.667c0-.368.299-.667.667-.667s.665.299.665.667v2.667c0 1.103-.897 2-2 2z" fill="#d9a4fc"/></svg>